HIERARCHY
ROOT Hips
{
  OFFSET 196.326 95.9168 97.7182
  CHANNELS 6 Xposition Yposition Zposition Zrotation Xrotation Yrotation
  JOINT LeftUpLeg
  {
    OFFSET 8.64259 1.95398 -2.38835
    CHANNELS 3 Zrotation Xrotation Yrotation
    JOINT LeftLeg
    {
      OFFSET 43.7702 0 0
      CHANNELS 3 Zrotation Xrotation Yrotation
      JOINT LeftFoot
      {
        OFFSET 40.6238 0 0
        CHANNELS 3 Zrotation Xrotation Yrotation
        JOINT LeftToeBase
        {
          OFFSET 12.7242 0 0
          CHANNELS 3 Zrotation Xrotation Yrotation
          End Site
          {
            OFFSET 0 0 0
          }
        }
      }
    }
  }
  JOINT RightUpLeg
  {
    OFFSET -8.2249 1.95398 -2.59336
    CHANNELS 3 Zrotation Xrotation Yrotation
    JOINT RightLeg
    {
      OFFSET 43.5653 0 0
      CHANNELS 3 Zrotation Xrotation Yrotation
      JOINT RightFoot
      {
        OFFSET 40.6238 0 0
        CHANNELS 3 Zrotation Xrotation Yrotation
        JOINT RightToeBase
        {
          OFFSET 12.7242 0 0
          CHANNELS 3 Zrotation Xrotation Yrotation
          End Site
          {
            OFFSET 0 0 0
          }
        }
      }
    }
  }
  JOINT Spine
  {
    OFFSET 0.165834 0.87714 6.61349
    CHANNELS 3 Zrotation Xrotation Yrotation
    JOINT Spine1
    {
      OFFSET 7.38963 1.71661e-005 0
      CHANNELS 3 Zrotation Xrotation Yrotation
      JOINT Spine2
      {
        OFFSET 11.9445 1.14441e-005 0
        CHANNELS 3 Zrotation Xrotation Yrotation
        JOINT Spine3
        {
          OFFSET 14.7254 4.19617e-005 0
          CHANNELS 3 Zrotation Xrotation Yrotation
          JOINT Spine4
          {
            OFFSET 10.9679 0 0
            CHANNELS 3 Zrotation Xrotation Yrotation
            JOINT RightShoulder
            {
              OFFSET 2.46616 -1.6653 3.69651
              CHANNELS 3 Zrotation Xrotation Yrotation
              JOINT RightArm
              {
                OFFSET 13.0012 0 0
                CHANNELS 3 Zrotation Xrotation Yrotation
                JOINT RightForeArm
                {
                  OFFSET 28.7848 1.52588e-005 0
                  CHANNELS 3 Zrotation Xrotation Yrotation
                  JOINT RightHand
                  {
                    OFFSET 26.5688 1.52588e-005 0
                    CHANNELS 3 Zrotation Xrotation Yrotation
                    End Site
                    {
                      OFFSET 0 0 0
                    }
                  }
                }
              }
            }
            JOINT LeftShoulder
            {
              OFFSET 2.38034 -1.29275 -3.75231
              CHANNELS 3 Zrotation Xrotation Yrotation
              JOINT LeftArm
              {
                OFFSET 16.3182 6.10351e-005 0
                CHANNELS 3 Zrotation Xrotation Yrotation
                JOINT LeftForeArm
                {
                  OFFSET 27.0901 0 0
                  CHANNELS 3 Zrotation Xrotation Yrotation
                  JOINT LeftHand
                  {
                    OFFSET 24.5451 1.52588e-005 0
                    CHANNELS 3 Zrotation Xrotation Yrotation
                    End Site
                    {
                      OFFSET 0 0 0
                    }
                  }
                }
              }
            }
            JOINT Neck
            {
              OFFSET 5.0226 -0.0266342 0
              CHANNELS 3 Zrotation Xrotation Yrotation
              JOINT Head
              {
                OFFSET 6.69363 2.86102e-005 0
                CHANNELS 3 Zrotation Xrotation Yrotation
                End Site
                {
                  OFFSET 0 0 0
                }
              }
            }
          }
        }
      }
    }
  }
}
MOTION
Frames:	17
Frame Time:	0.0416667
16.3666 71.7974 -298.494 -10.1785 24.0323 38.0861 20.303 38.2293 -99.1824 -99.9652 -59.4624 0.994742 -55.1262 -66.7815 -126.247 -134.91 -31.4965 -92.8838 -18.2551 19.247 -106.949 -13.072 21.8918 0.175239 54.0763 19.9136 3.0613 145.781 62.7999 39.2107 -2.84938 -8.041 -90.2513 43.0891 -5.10426 2.32096 31.4257 -4.99717 2.54372 8.81235 -5.56517 0.675465 28.825 -5.56517 0.675465 123.749 -33.7815 -41.4503 -8.35571 -48.2043 -78.8668 0.105746 0.474059 -37.2182 -38.3645 -22.7512 57.3143 -97.7219 -28.7438 58.2891 -50.5981 47.1041 12.2447 -14.6535 -8.42434 -46.5185 55.0535 -3.30912 -10.2423 1.35559 -11.4743 -18.4577 -27.9527 -10.347 9.68978 
16.2575 72.4114 -295.178 -5.33532 17.7854 30.2846 26.867 53.6845 -112.463 -56.2262 -78.2517 39.7676 -25.5222 -54.2833 -82.596 -92.8135 8.41246 -79.138 -11.4888 18.8788 -104.906 -25.3704 12.0492 5.73448 63.4545 18.7556 2.80448 142.606 63.9188 42.6297 -2.67374 -6.52781 -92.4571 39.9036 -6.38324 -2.03953 28.2474 -6.46678 -1.75559 5.62415 -5.47457 -3.86775 25.6368 -5.47457 -3.86776 104.393 -51.4724 -78.4238 -58.5335 -45.6651 -98.2523 -13.2853 30.8848 -28.8407 -35.9681 -22.8619 58.4639 -90.6096 -40.5852 75.3314 -52.4884 38.4876 20.4351 0.729296 -2.26032 -62.7493 55.0718 -0.24463 -4.60266 -7.05076 1.29622 -2.55255 -11.9434 0.974783 4.97746 
15.2269 75.3346 -292.368 -1.33262 7.01813 19.108 40.9159 74.1997 -124.729 -16.555 -82.8006 67.6458 0.068004 -36.8384 -45.7461 51.8978 -12.8616 -162.392 4.63509 28.41 -107.724 -24.5497 -3.78026 14.6416 67.2317 8.9247 1.71446 141.851 64.3988 43.648 -2.25859 -4.11636 -93.0653 35.1301 -6.15953 -3.94956 23.4681 -6.32719 -3.67423 0.909263 -4.69003 -5.61751 20.9219 -4.69003 -5.61752 72.4301 -52.3488 -125.717 -94.4231 -54.3023 -110.612 -45.5907 39.9482 -4.87512 -31.5979 -17.715 51.7223 -80.832 -45.9799 92.4141 -49.377 27.5922 20.9087 18.3603 0.151863 -78.3381 43.7636 2.85282 2.69601 -7.36959 8.28091 12.6834 -1.7451 7.20742 -3.58114 
13.6741 83.2505 -288.467 1.008 -7.51599 4.12935 -172.49 80.8685 91.3898 -55.6003 -82.2556 10.7254 6.96295 -30.262 -28.6675 81.2798 -20.6806 -154.025 8.87709 52.4049 -95.1463 -19.2485 -15.03 3.95193 68.5207 -0.905059 -2.7203 142.726 63.3585 42.0541 -0.662914 -2.17253 -90.2187 30.8633 -1.64723 -0.714831 19.193 -1.67708 -0.64165 -3.34556 -1.35627 -1.17683 16.6671 -1.35627 -1.17684 73.0789 -53.4006 -124.318 -34.2626 -64.8526 -52.4826 -55.1429 18.5693 -26.5007 -33.6564 -5.58866 14.3125 -91.9745 -46.2644 74.8256 -43.9986 13.7389 25.9274 22.2994 -2.86354 -88.2441 34.7332 3.66616 6.76038 -1.73695 5.31082 8.04154 -0.205029 4.15793 -2.89473 
11.2005 88.6629 -288.03 1.54202 -25.188 -12.3114 -145.533 67.9508 66.0112 -68.3821 -64.7549 -5.42661 9.63641 -21.9621 -35.7593 22.1342 11.7352 -143.221 -5.53304 72.3698 -72.9754 -26.3316 -22.5889 -5.03242 74.3397 -5.65108 -3.97596 142.872 62.8575 41.5147 0.557539 0.768009 -88.2536 25.3026 2.08778 3.02651 13.63 2.21889 2.93176 -8.88152 1.08231 3.51349 11.1311 1.0823 3.51347 80.8164 -49.9392 -114.707 14.8424 -44.7631 -10.9658 -62.0143 16.8171 -60.1783 -38.437 2.71919 -11.9112 -96.4564 -43.2438 66.8768 -41.9109 10.4442 28.2996 19.6104 -3.84619 -91.0724 33.9426 3.64153 6.97593 8.42445 2.53403 3.042 -2.90335 1.82093 -0.525403 
10.395 89.8108 -287.804 -0.0976966 -43.3891 -23.4657 -141.108 58.9895 60.7303 -67.0204 -16.957 -6.28359 40.8549 -12.6803 -15.0158 43.5732 16.6119 -14.8301 -38.9495 83.0198 -41.5604 -48.6802 -27.5565 -9.46934 87.5541 -11.1219 -5.88358 139.685 64.0474 45.0964 1.01606 3.24057 -86.9757 20.3251 3.64002 5.434 8.64857 3.87532 5.26903 -13.8083 1.84243 6.27361 6.20438 1.84243 6.27362 84.5728 -46.2868 -110.331 31.8861 -32.4459 3.14038 -54.8296 21.963 -83.0209 -43.3214 4.03634 -14.2499 -96.2822 -40.9336 66.3017 -43.5202 11.0826 32.5648 19.4507 -5.08103 -93.5608 35.2783 3.87432 7.23069 10.8159 0.554367 2.08149 -2.99373 0.0266216 -0.862964 
11.5622 91.459 -284.191 -0.071244 -59.5338 -21.4698 -152.98 52.0148 69.7867 -56.2796 13.5748 -7.59536 49.0342 -3.10213 15.0381 45.3408 17.8264 -2.15277 -146.236 79.5274 60.1519 -64.8489 -23.0098 -9.05456 104.476 -17.7126 -4.79021 135.821 65.1369 49.2761 0.789198 4.98347 -87.1899 16.8347 2.99837 5.15589 5.15749 3.22209 5.01934 -17.3031 1.31319 5.81638 2.70954 1.31319 5.81638 85.4147 -43.8527 -109.848 38.2128 -28.938 8.29075 -39.3551 19.5501 -97.1558 -48.2929 0.135804 -3.85212 -94.6337 -39.5489 68.4816 -46.835 11.119 37.985 15.8488 -6.24173 -95.4922 33.3584 3.37968 6.27117 11.2975 -0.221577 2.86524 -3.61445 -0.955327 -2.21528 
13.536 93.8577 -278.381 6.68162 -70.5783 -7.57454 -166.039 47.6326 81.0437 -45.411 13.3256 -4.68326 47.564 -5.99912 7.2117 42.4454 15.4842 2.14069 179.596 64.9113 84.0738 -69.1436 -24.7421 0.495439 119.252 -22.415 -2.21803 146.883 65.6821 40.7217 0.599595 6.01652 -88.0557 14.7959 2.15025 3.59506 3.12208 2.30631 3.49708 -19.3774 0.971382 4.0743 0.635205 0.971389 4.0743 86.5063 -43.3056 -108.258 39.4694 -31.3788 9.02524 -32.0439 16.649 -101.469 -44.0704 -2.69575 3.11526 -94.1643 -37.7135 68.5964 -50.1958 10.6045 42.8576 16.5236 -7.08309 -96.0524 28.6329 2.64966 5.50705 11.1976 -1.31211 2.45619 -4.4721 -1.91363 -2.62703 
15.3928 95.1441 -271.878 10.2215 -75.9379 1.55122 -171.517 42.3484 86.93 -30.1046 19.1672 -3.52823 42.8038 -9.94465 2.67808 44.472 19.4635 10.0677 173.023 50.6833 87.5094 -70.8782 -24.6741 4.65661 130.947 -24.8505 0.439494 155.556 67.8197 35.5687 0.782588 6.54906 -88.7307 13.7502 2.16935 2.25751 2.07925 2.26659 2.15986 -20.4472 1.39088 2.8048 -0.434591 1.39089 2.80481 87.2786 -41.9112 -107.452 41.5731 -32.0881 10.2599 -30.9584 19.7171 -105.942 -25.2255 -1.99606 4.89488 -94.0329 -36.6554 68.4307 -52.4917 10.7357 45.3443 14.4572 -7.21593 -97.2006 36.0491 3.30126 5.34319 12.5544 -2.16896 2.4244 -5.30874 -2.74485 -2.36536 
16.8579 95.9687 -264.779 9.84374 -78.3387 4.40594 -172.624 38.4096 89.4385 -18.042 20.7486 -3.19796 42.6036 -10.0458 4.76878 49.2645 21.2899 -4.6502 174.095 38.6173 88.3936 -71.425 -16.8555 5.33395 138.692 -24.6512 3.00587 158.825 73.026 36.818 1.02023 6.77035 -89.0862 13.3156 2.46574 1.51886 1.64623 2.53018 1.40881 -20.894 1.89536 2.18969 -0.881332 1.89536 2.18968 87.9884 -42.1067 -106.201 41.413 -32.7509 11.3703 -29.6818 22.6598 -106.733 -24.0555 -2.02836 5.42411 -94.1097 -36.1973 68.1272 -52.8888 9.99196 46.0706 16.3316 -7.62938 -97.7374 33.3513 3.23284 5.91245 14.0374 -2.82202 1.18239 -5.40052 -3.0725 -1.54603 
17.9025 95.6025 -257.042 8.10078 -80.3653 3.03432 -171.945 33.6599 89.2458 -11.5642 16.8195 -3.59818 41.3201 -10.8854 -0.98185 55.5211 29.6575 1.26435 175.839 28.237 91.5451 -73.0908 -2.1213 -0.245137 141.065 -23.2459 2.03196 41.79 54.0151 160.804 1.0444 6.97032 -89.1604 12.9182 2.47626 1.37909 1.24903 2.53455 1.26873 -21.2931 1.94737 2.0596 -1.28041 1.94737 2.0596 87.4064 -42.2124 -107.139 41.0473 -31.8865 12.7699 -29.053 19.774 -104.699 -19.7424 -1.34066 3.16295 -93.6422 -36.7586 69.1385 -52.9377 9.26503 44.4747 15.4816 -7.24766 -97.8338 35.8865 3.55026 6.10219 15.0868 -2.60324 1.05518 -5.57172 -2.82473 -1.05053 
18.8721 94.5855 -249.648 7.21034 -82.6203 1.30041 -171.527 30.0093 87.7699 -13.3705 18.1197 -3.41423 41.7904 -10.6669 0.916389 54.106 27.8139 0.475494 177.029 19.8823 92.6726 -73.5994 9.80322 -3.40479 135.362 -24.5499 1.07376 32.6895 -43.9512 165.569 0.936095 7.14794 -89.0806 12.5613 2.29786 1.57053 0.891532 2.36475 1.46786 -21.6462 1.71972 2.18846 -1.63352 1.71972 2.18846 86.4841 -43.2324 -108.319 40.923 -29.9047 14.8974 -27.2296 15.8886 -102.413 -23.1846 -1.78734 4.30239 -93.4796 -37.8259 69.7974 -51.2784 7.40863 41.5204 15.4243 -6.50541 -97.1196 35.2086 3.34589 5.70411 14.54 -2.15948 0.702785 -5.4583 -2.29587 -0.8486 
19.9975 93.565 -242.57 3.60306 -85.6429 -2.00594 -170.878 28.2102 87.476 -24.8575 22.3628 -4.41757 50.9925 -2.08813 14.6199 51.0002 18.1016 -24.9641 175.987 15.0665 92.6231 -77.892 9.99034 -4.30484 120.187 -24.3089 -1.89539 -100.909 -63.2939 20.4871 0.862931 7.36523 -89.1333 12.1284 2.12521 1.49475 0.458422 2.18894 1.39975 -22.0784 1.57782 2.06431 -2.06578 1.57782 2.0643 85.8026 -44.8893 -108.861 40.4385 -28.2586 17.2722 -24.7025 11.745 -98.0677 -27.7486 -2.25527 4.95439 -94.7617 -39.0362 68.0817 -48.6785 5.46303 38.5961 15.2362 -5.90666 -96.9253 35.5026 3.41966 5.8363 12.0562 -1.70017 -0.067676 -3.37364 -1.64748 -0.17372 
20.8667 91.7085 -235.714 7.65849 -87.2583 2.12251 -170.125 27.3419 86.8936 -36.5342 19.3801 -4.36195 59.4415 7.62132 20.1477 53.3102 17.9971 -32.4682 176.031 17.9256 93.8594 -86.5719 10.7571 -4.95368 95.1531 -17.5605 -5.11606 -83.3204 -29.2272 10.5882 0.557618 7.50934 -89.1186 11.8432 1.52368 1.59605 0.172307 1.59244 1.52745 -22.3586 0.973647 1.98008 -2.34594 0.973646 1.98007 84.4483 -46.5401 -110.434 39.7267 -25.5151 18.7233 -22.2218 5.34394 -91.3394 -27.4118 -1.67788 2.56143 -96.0102 -40.468 66.5631 -45.2626 4.04889 34.0848 15.3893 -5.27592 -96.5686 36.1026 3.59374 6.14884 9.50899 -0.72128 -1.25049 0.289802 -0.360319 1.10209 
21.2227 90.143 -229.532 25.4708 -86.4161 18.2702 -170.306 26.6139 84.6784 -42.9067 17.0779 -3.7204 62.5973 11.5332 21.3036 58.2392 22.8238 -26.2745 175.211 27.4258 93.0493 -91.8257 14.241 -5.11057 66.418 -8.55158 -4.65497 -38.6517 -12.0199 9.67508 0.0970471 7.6339 -88.8156 11.5915 0.747605 2.2813 -0.0812608 0.84726 2.2462 -22.6001 0.0276541 2.40045 -2.58742 0.0276518 2.40044 83.4011 -48.4235 -111.384 38.8502 -23.008 18.6913 -20.2999 1.51044 -84.4192 -31.3589 -2.03692 3.13521 -97.8896 -41.3305 63.8773 -39.9681 3.84828 27.0463 16.3455 -4.51981 -95.5843 37.4201 4.32758 7.81875 12.2479 0.171737 -3.20827 -0.612053 1.08373 2.40521 
22.1498 89.4386 -222.904 30.2728 -83.0339 24.6797 -171.58 26.2447 85.2826 -45.4058 18.2051 -2.68285 64.403 15.368 24.9426 61.4689 26.0963 -23.1829 172.859 37.4039 93.9857 -90.7789 15.5469 -4.37206 49.0733 -3.54612 -2.34985 21.3915 -2.10723 12.4349 -0.317944 7.4374 -88.9882 11.9978 -0.154624 2.03832 0.325266 -0.0647812 2.04314 -22.1986 -0.75998 1.89771 -2.1859 -0.759975 1.89771 82.305 -49.6937 -112.58 38.6014 -20.6621 21.039 -14.1032 -1.78223 -79.1425 -34.9276 -2.49088 3.54355 -99.4905 -41.4644 61.3904 -34.8981 4.43151 19.7309 17.2938 -3.83161 -94.0967 36.7919 4.43842 8.31706 13.0257 1.37507 -3.51519 -0.413596 2.37207 2.64098 
22.6724 90.1322 -215.926 26.2122 -83.2846 21.0888 -172.043 20.2867 86.0435 -42.9333 18.3597 -2.18819 62.7417 13.7189 24.39 63.2888 30.1699 -16.0079 172.061 42.6877 94.3237 -84.6243 20.8202 -3.30527 46.9485 -3.0629 -1.9132 38.7674 1.14163 20.746 -0.523217 7.44726 -89.0825 11.9809 -0.607517 1.89612 0.308721 -0.523491 1.92102 -22.2189 -1.14922 1.626 -2.20626 -1.14922 1.626 81.44 -50.7741 -113.468 38.8728 -19.9912 25.6845 -13.1661 -2.05613 -77.5308 -36.5673 -2.49541 3.16821 -99.5244 -41.1843 61.2166 -32.4088 3.64288 16.1162 17.9018 -4.63351 -97.6584 39.4687 4.88454 8.59622 11.9024 3.41693 -2.69088 0.0864447 4.12279 2.26931 
